<svg viewBox="0 0 32 32" xmlns="http://www.w3.org/2000/svg">
  <path fill="#1572B6" d="M5.902 27.201L3.655 2h24.69l-2.25 25.197L15.985 30z"/>
  <path fill="#33A9DC" d="M16 27.858l8.17-2.265 1.922-21.532H16z"/>
  <path fill="#fff" d="M16 13.191h4.09l.282-3.165H16V6.935h7.75l-.074.829-.759 8.518H16z"/>
  <path fill="#EBEBEB" d="M16.018 21.117l-.014.004-3.442-.929-.22-2.465H9.24l.433 4.852 6.331 1.758.014-.004z"/>
  <path fill="#fff" d="M19.827 16.151l-.372 4.139-3.447.93v3.216l6.336-1.756.047-.522.537-6.007z"/>
  <path fill="#EBEBEB" d="M16.011 6.935v3.091H8.545l-.062-.695-.141-1.567-.074-.829zM16 13.191v3.091H12.601l-.062-.695-.14-1.567-.074-.829z"/>
</svg>
