<svg viewBox="0 0 32 32" xmlns="http://www.w3.org/2000/svg">
  <path fill="#a1a1aa" d="M32 24.795c-1.164.296-1.95.196-2.685-.736l-5.275-6.326-0.328-.39-5.603 6.763c-.72.886-1.474 1.02-2.596.746l7.15-8.602-6.671-8.47c1.089-.224 1.867-.14 2.581.72l5.502 6.53 5.527-6.51c.717-.88 1.474-1.007 2.573-.72l-2.604 3.105-3.66 4.217-.207.254 6.296 7.42zM.047 15.345l1.137-5.58C2.74 3.2 7.536.592 13.28 2.26 17.6 3.5 20.09 6.54 20.25 10.98h-3.1c-.398-3.023-1.917-5.167-4.863-5.94-3.15-.826-6.012.317-7.3 3.13a12.34 12.34 0 0 0-.876 3.674c.097 0-.005 0 0 0h16.064c.47 8.032-3.396 13.5-10.477 14.57C5.32 27.1 1.06 23.65.108 19.262a22 22 0 0 1-.06-3.917z"/>
</svg>
