<svg viewBox="0 0 32 32" xmlns="http://www.w3.org/2000/svg">
  <rect width="32" height="32" rx="2" fill="#F7DF1E"/>
  <path d="M20.809 23.875a2.867 2.867 0 0 0 2.6 1.6c1.09 0 1.787-.545 1.787-1.3 0-.9-.715-1.222-1.916-1.747l-.658-.282c-1.9-.809-3.16-1.822-3.16-3.964 0-1.973 1.5-3.473 3.853-3.473a3.889 3.889 0 0 1 3.742 2.107l-2.05 1.316a1.789 1.789 0 0 0-1.692-1.127 1.145 1.145 0 0 0-1.26 1.127c0 .789.489 1.109 1.622 1.6l.658.282c2.236.958 3.5 1.936 3.5 4.133 0 2.369-1.861 3.667-4.36 3.667a5.055 5.055 0 0 1-4.795-2.691zM9.078 24.066a2.3 2.3 0 0 0 1.971 1.409c1.009 0 1.652-.4 1.652-1.9V15.2h2.548v8.411c0 3.132-1.838 4.557-4.521 4.557a4.684 4.684 0 0 1-4.157-2.418z" fill="#000"/>
</svg>
