<svg viewBox="0 0 32 32" xmlns="http://www.w3.org/2000/svg">
  <path fill="#599636" d="M16.62 30l-.751-.249s.1-3.8-1.275-4.067c-.9-1.048.144-44.735 3.2-.494a7.022 7.022 0 0 1-1.155 4.56c-.018.249-.019.25-.019.25z"/>
  <path fill="#6cac48" d="M17.026 26.329a13.223 13.223 0 0 0 5.91-10.595 16.468 16.468 0 0 0-3.732-10.545 21.9 21.9 0 0 1-2.106-2.785c0-.2-.114-.515-.2-.747l-.1-.249a23.723 23.723 0 0 1-.481 3.036C14.835 7.794 10.1 10.9 9.467 15.236a14.371 14.371 0 0 0 1.792 9.419 25.88 25.88 0 0 0 5.6 3.046c.094-.737.107-1.285.167-1.372z"/>
  <path fill="#c2bfbf" d="M17.026 26.329a13.223 13.223 0 0 0 5.91-10.595 16.468 16.468 0 0 0-3.732-10.545 21.9 21.9 0 0 1-2.106-2.785l-.3-.906"/>
  <path fill="#499d4a" d="M15.487 26.569a16.1 16.1 0 0 1-4.228-1.914A14.371 14.371 0 0 1 9.467 15.236c.636-4.336 5.368-7.442 6.852-10.792a23.723 23.723 0 0 0 .481-3.036"/>
</svg>
