<svg viewBox="0 0 32 32" xmlns="http://www.w3.org/2000/svg">
  <path fill="#539E43" d="M16 30.1a2.12 2.12 0 0 1-1.067-.288l-3.4-2.013c-.507-.283-.26-.383-.092-.441a6.756 6.756 0 0 0 1.537-.7.263.263 0 0 1 .255.019l2.613 1.551a.338.338 0 0 0 .312 0l10.19-5.882a.318.318 0 0 0 .153-.273V10.3a.325.325 0 0 0-.156-.278L16.157 4.148a.31.31 0 0 0-.308 0L5.666 10.025a.321.321 0 0 0-.16.276v11.768a.3.3 0 0 0 .16.268l2.792 1.612c1.515.758 2.445-.135 2.445-1.032V11.2a.3.3 0 0 1 .3-.3h1.3a.3.3 0 0 1 .3.3v11.717c0 2.024-1.1 3.183-3.017 3.183a4.34 4.34 0 0 1-2.343-.637l-2.674-1.539A2.138 2.138 0 0 1 3.7 22.071V10.3a2.133 2.133 0 0 1 1.067-1.848l10.19-5.887a2.208 2.208 0 0 1 2.137 0l10.19 5.884A2.142 2.142 0 0 1 28.346 10.3v11.768a2.147 2.147 0 0 1-1.067 1.851l-10.19 5.882a2.1 2.1 0 0 1-1.067.3z"/>
  <path fill="#539E43" d="M18.84 21.989c-4.457 0-5.391-2.045-5.391-3.762a.3.3 0 0 1 .3-.3h1.329a.3.3 0 0 1 .295.258c.2 1.351.8 2.032 3.467 2.032 2.132 0 3.039-.482 3.039-1.614 0-.653-.258-1.137-3.573-1.462-2.77-.274-4.484-.886-4.484-3.1 0-2.042 1.722-3.259 4.609-3.259 3.243 0 4.849 1.125 5.053 3.541a.306.306 0 0 1-.3.328h-1.337a.293.293 0 0 1-.287-.233c-.319-1.415-1.095-1.868-3.129-1.868-2.3 0-2.572.8-2.572 1.405 0 .729.317 .942 3.464 1.354 3.117.408 4.593 .987 4.593 3.191 0 2.206-1.839 3.467-5.049 3.467z"/>
</svg>
