<svg viewBox="0 0 32 32" xmlns="http://www.w3.org/2000/svg">
  <circle cx="16" cy="15.974" r="2.5" fill="#00d8ff"/>
  <path d="M16 21.706a28.385 28.385 0 0 1-8.88-1.2 11.3 11.3 0 0 1-3.657-1.958A3.543 3.543 0 0 1 2 16.005a3.513 3.513 0 0 1 1.46-2.543 11.2 11.2 0 0 1 3.658-1.958 28.4 28.4 0 0 1 8.88-1.2 28.494 28.494 0 0 1 8.882 1.2 11.291 11.291 0 0 1 3.657 1.958A3.513 3.513 0 0 1 30 16.005a3.543 3.543 0 0 1-1.463 2.543 11.3 11.3 0 0 1-3.657 1.958 28.488 28.488 0 0 1-8.88 1.2zm0-11.692a27.543 27.543 0 0 0-8.567 1.137 10.397 10.397 0 0 0-3.352 1.776 2.6 2.6 0 0 0-1.06 1.886 2.583 2.583 0 0 0 1.06 1.882 10.409 10.409 0 0 0 3.352 1.774A27.582 27.582 0 0 0 16 20.744a27.613 27.613 0 0 0 8.569-1.137 10.4 10.4 0 0 0 3.35-1.774 2.583 2.583 0 0 0 1.06-1.882 2.6 2.6 0 0 0-1.06-1.886 10.389 10.389 0 0 0-3.35-1.776A27.573 27.573 0 0 0 16 10.014z" fill="#00d8ff"/>
  <path d="M10.32 28.443a2.639 2.639 0 0 1-1.336-.328c-1.432-.826-1.928-3.208-1.327-6.373a28.755 28.755 0 0 1 3.4-8.593 28.676 28.676 0 0 1 5.653-7.154 11.376 11.376 0 0 1 3.384-2.39 3.56 3.56 0 0 1 2.929-.027 3.553 3.553 0 0 1 1.591 2.177 11.375 11.375 0 0 1 .582 4.09 28.674 28.674 0 0 1-1.167 9.516 28.745 28.745 0 0 1-5.456 7.439 11.376 11.376 0 0 1-3.384 2.39 4.1 4.1 0 0 1-1.594.328 2.567 2.567 0 0 1-1.275-.075zm0 0" fill="#00d8ff"/>
  <path d="M21.687 28.443a4.089 4.089 0 0 1-1.869-.253 11.376 11.376 0 0 1-3.384-2.39 28.744 28.744 0 0 1-5.456-7.439 28.69 28.69 0 0 1-1.167-9.516c-.032-1.618.138-3.043.582-4.09A3.553 3.553 0 0 1 11.984 2.578a3.56 3.56 0 0 1 2.929.027 11.376 11.376 0 0 1 3.384 2.39 28.676 28.676 0 0 1 5.653 7.154 28.755 28.755 0 0 1 3.4 8.593c.601 3.165.105 5.547-1.327 6.373a2.639 2.639 0 0 1-1.336.328z" fill="#00d8ff"/>
</svg>
